<svg id="Icons" height="512" viewBox="0 0 74 74" width="512" xmlns="http://www.w3.org/2000/svg"><path d="m62.731 44.78a.965.965 0 0 1 -.264-.036 1 1 0 0 1 -.7-1.228c.268-.98.487-1.928.651-2.817a1 1 0 1 1 1.967.362c-.174.945-.406 1.949-.689 2.982a1 1 0 0 1 -.965.737z"/><path d="m37 72a1.024 1.024 0 0 1 -.3-.044l-.39-.13a40.778 40.778 0 0 1 -27.48-38.776v-18.24a1 1 0 0 1 1.04-1c11.954.478 20.32-3.147 26.321-11.4a.989.989 0 0 1 .836-.41 1 1 0 0 1 .813.458c5.852 9.064 16.139 10.813 26.383 11.354a1 1 0 0 1 .947 1v9.14a1 1 0 1 1 -2 0v-8.197c-10.018-.605-19.98-2.511-26.21-11.047-6.174 7.818-14.534 11.375-26.13 11.133v17.209a38.768 38.768 0 0 0 26.1 36.873l.057.019c1.158-.415 2.283-.861 3.35-1.328a38 38 0 0 0 18.963-18.466 1 1 0 0 1 1.8.864 40 40 0 0 1 -19.959 19.434c-1.209.53-2.492 1.034-3.809 1.5a1 1 0 0 1 -.332.054z"/><path d="m64.151 34.92h-.068a1 1 0 0 1 -.931-1.064c.019-.268.018-.525.018-.793v-2.093a1 1 0 0 1 2 0v2.09c0 .313 0 .614-.022.927a1 1 0 0 1 -.997.933z"/><path d="m36.959 64.606a1 1 0 0 1 -.369-.07c-13.423-5.332-21.761-17.4-21.761-31.49v-12.335a1 1 0 0 1 .924-1c8.321-.637 15.026-3.377 20.5-8.374a1 1 0 0 1 1.34-.009c4.988 4.437 11.563 6.987 20.692 8.024a1 1 0 0 1 .887.994v12.714a33.413 33.413 0 0 1 -20.435 30.886q-.69.3-1.406.589a1 1 0 0 1 -.372.071zm-20.13-42.977v11.417c0 13.125 7.7 24.386 20.129 29.482.33-.135.656-.274.977-.414 12.044-5.274 19.236-16.135 19.236-29.054v-11.824c-8.71-1.1-15.184-3.605-20.233-7.828-5.482 4.755-12.077 7.451-20.109 8.221z"/><path d="m33.042 44.167a1 1 0 0 1 -.707-.293l-5.417-5.417a1 1 0 0 1 1.414-1.414l4.71 4.709 12.626-12.626a1 1 0 1 1 1.414 1.415l-13.333 13.333a1 1 0 0 1 -.707.293z"/></svg>